<?xml version="1.0" encoding="UTF-8"?>
<svg xmlns="http://www.w3.org/2000/svg" version="1.1" viewBox="0 0 2442.1 292.5">
  <defs>
    <style>
      .cls-1 {
        fill: #fff;
      }

      .cls-2 {
        fill: #f2684c;
      }
    </style>
  </defs>
  <!-- Generator: Adobe Illustrator 28.7.1, SVG Export Plug-In . SVG Version: 1.2.0 Build 142)  -->
  <g>
    <g id="Layer_2">
      <g>
        <g>
          <path class="cls-1" d="M0,28.5C0,13,13,0,28.5,0s28.5,13,28.5,28.5-13,28.5-28.5,28.5S0,44,0,28.5ZM4.7,70.9h47.5v158.2H4.7V70.9Z"/>
          <path class="cls-1" d="M76.9,150c0-47.2,35.8-83.6,83.9-83.6s57.9,16.1,71.5,40.5l-41.5,24.1c-5.4-11.1-16.8-17.7-30.7-17.7-20.6,0-35.8,14.9-35.8,36.7s15.2,36.7,35.8,36.7,25.6-6.6,30.7-17.7l41.5,23.7c-13.6,24.7-40.5,40.8-71.5,40.8-48.1,0-83.9-36.4-83.9-83.6h0Z"/>
          <path class="cls-1" d="M238,150c0-47.2,37.3-83.6,83.9-83.6s83.9,36.4,83.9,83.6-37.3,83.6-83.9,83.6-83.9-36.4-83.9-83.6h0ZM358.2,150c0-22.5-15.8-37.3-36.4-37.3s-36.4,14.9-36.4,37.3,15.8,37.3,36.4,37.3,36.4-14.9,36.4-37.3h0Z"/>
          <path class="cls-1" d="M582.3,132v97.1h-47.5v-90.2c0-19.6-12.3-28.8-27.5-28.8s-29.4,10.1-29.4,32.6v86.4h-47.5V70.9h47.5v14.9c8.5-11.7,24.4-19.3,45.3-19.3,32,0,59.2,22.8,59.2,65.5h0Z"/>
          <path class="cls-1" d="M607.9,28.5c0-15.5,13-28.5,28.5-28.5s28.5,13,28.5,28.5-13,28.5-28.5,28.5-28.5-13-28.5-28.5ZM612.7,70.9h47.5v158.2h-47.5V70.9h0Z"/>
          <path class="cls-1" d="M684.8,150c0-47.2,35.8-83.6,83.9-83.6s57.9,16.1,71.5,40.5l-41.5,24.1c-5.4-11.1-16.8-17.7-30.7-17.7-20.6,0-35.8,14.9-35.8,36.7s15.2,36.7,35.8,36.7,25.6-6.6,30.7-17.7l41.5,23.7c-13.6,24.7-40.5,40.8-71.5,40.8-48.1,0-83.9-36.4-83.9-83.6h0Z"/>
        </g>
        <g>
          <path class="cls-1" d="M1428.4,118.5c0,29.2-21.8,51.2-51.7,51.2h-43.8v63.3h-12.6V67.1h56.4c29.9,0,51.7,22,51.7,51.4ZM1415.8,118.5c0-23-16.3-39.6-39.1-39.6h-43.8v78.9h43.8c22.8,0,39.1-16.6,39.1-39.3Z"/>
          <path class="cls-1" d="M1523.4,164.9h-52.4v68h-12.6V67.1h65.4c27,0,49.1,22,49.1,49s-15.4,41.5-36.5,47.1l41.2,69.7h-14.4l-39.8-68ZM1471,153.1h52.8c20.1,0,36.5-16.6,36.5-37s-16.3-37.2-36.5-37.2h-52.8v74.2Z"/>
          <path class="cls-1" d="M1593.3,150c0-47.4,37.7-85.5,85.5-85.5s85.5,38.2,85.5,85.5-37.7,85.5-85.5,85.5-85.5-38.1-85.5-85.5ZM1751.8,150c0-40.8-32-73.5-73-73.5s-73,32.7-73,73.5,32,73.5,73,73.5,73-32.7,73-73.5Z"/>
          <path class="cls-1" d="M1775.3,207.8l10.7-6.4c5.9,14.9,20.1,22,38.9,22s40.5-12.3,40.5-36v-120.4h12.8v120.4c0,31.8-23.9,48.1-53.3,48.1s-41.5-9.5-49.5-27.7h0Z"/>
          <path class="cls-1" d="M2011.3,221.1v11.9h-95.5V67.1h94.3v11.8h-81.8v64.4h75.8v11.9h-75.8v65.9h82.9Z"/>
          <path class="cls-1" d="M2030.5,150c0-47.4,35.8-85.5,86.2-85.5s57.4,15.6,71.1,39.8l-11.1,6.4c-10.9-20.4-33.9-34.1-59.9-34.1-43.6,0-73.7,32.7-73.7,73.5s30.1,73.5,73.7,73.5,49.5-14,60.4-34.8l11.1,6.4c-13.5,24.4-40.5,40.5-71.6,40.5-50.5,0-86.2-38.1-86.2-85.5h0Z"/>
          <path class="cls-1" d="M2316.5,78.9h-52.1v154h-12.8V78.9h-52.1v-11.8h117.1v11.8h0Z"/>
          <path class="cls-1" d="M2326.9,196.4l10.9-6.4c5.7,19.9,22.5,33.4,49.8,33.4s41.7-14.2,41.7-33.2-17.5-27.5-42.9-35.5c-27.7-9-52.6-16.8-52.6-45.7s22-44.6,50.2-44.6,45.3,15.6,53.3,34.8l-10.7,5.9c-6.2-14.9-19-28.7-42.6-28.7s-37.4,13.5-37.4,32,16.8,26.1,40.5,33.9c29.4,9.7,55,19,55,47.6s-21.6,45.5-54.5,45.5-53.1-15.6-60.7-39.1h0Z"/>
        </g>
        <g>
          <path class="cls-1" d="M1052.2,3.1h47.5v289.3h-47.5V3.1Z"/>
          <path class="cls-1" d="M931.3,171.5v-47.5h289.3v47.5h-289.3Z"/>
          <path class="cls-1" d="M956.9,62.3l33.6-33.6,204.6,204.6-33.6,33.6-204.6-204.6h0Z"/>
          <path class="cls-2" d="M1161.5,28.7l33.6,33.6-204.6,204.6-33.6-33.6,204.6-204.6h0Z"/>
        </g>
      </g>
    </g>
  </g>
</svg>