<?xml version="1.0" encoding="UTF-8"?>
<svg xmlns="http://www.w3.org/2000/svg" id="Layer_2" data-name="Layer 2" viewBox="0 0 2442.11 292.46">
  <defs>
    <style>
      .cls-1 {
        fill: #000;
      }

      .cls-1, .cls-2, .cls-3, .cls-4 {
        stroke-width: 0px;
      }

      .cls-2 {
        fill: #231f20;
      }

      .cls-3 {
        fill: #081414;
      }

      .cls-4 {
        fill: #f2684c;
      }
    </style>
  </defs>
  <g id="Layer_1-2" data-name="Layer 1">
    <g>
      <g>
        <path class="cls-3" d="M0,28.48C0,12.97,12.97,0,28.48,0s28.48,12.97,28.48,28.48-12.98,28.48-28.48,28.48S0,43.99,0,28.48ZM4.75,70.89h47.47v158.23H4.75V70.89Z"></path>
        <path class="cls-3" d="M76.9,150c0-47.15,35.76-83.55,83.86-83.55,30.7,0,57.91,16.14,71.52,40.51l-41.46,24.05c-5.38-11.08-16.77-17.72-30.7-17.72-20.57,0-35.76,14.87-35.76,36.71s15.19,36.71,35.76,36.71c13.92,0,25.63-6.65,30.7-17.72l41.46,23.74c-13.61,24.68-40.51,40.82-71.52,40.82-48.1,0-83.86-36.39-83.86-83.55Z"></path>
        <path class="cls-3" d="M237.98,150c0-47.15,37.35-83.55,83.86-83.55s83.86,36.39,83.86,83.55-37.34,83.55-83.86,83.55-83.86-36.39-83.86-83.55ZM358.24,150c0-22.47-15.83-37.34-36.4-37.34s-36.39,14.87-36.39,37.34,15.82,37.34,36.39,37.34,36.4-14.87,36.4-37.34Z"></path>
        <path class="cls-3" d="M582.3,131.97v97.15h-47.47v-90.19c0-19.62-12.34-28.8-27.53-28.8-17.41,0-29.43,10.13-29.43,32.6v86.39h-47.47V70.89h47.47v14.87c8.54-11.71,24.37-19.3,45.26-19.3,31.96,0,59.18,22.79,59.18,65.51Z"></path>
        <path class="cls-3" d="M607.94,28.48c0-15.51,12.98-28.48,28.48-28.48s28.48,12.97,28.48,28.48-12.98,28.48-28.48,28.48-28.48-12.98-28.48-28.48ZM612.68,70.89h47.47v158.23h-47.47V70.89Z"></path>
        <path class="cls-3" d="M684.84,150c0-47.15,35.76-83.55,83.86-83.55,30.7,0,57.92,16.14,71.52,40.51l-41.46,24.05c-5.38-11.08-16.77-17.72-30.7-17.72-20.57,0-35.76,14.87-35.76,36.71s15.19,36.71,35.76,36.71c13.93,0,25.63-6.65,30.7-17.72l41.46,23.74c-13.61,24.68-40.51,40.82-71.52,40.82-48.1,0-83.86-36.39-83.86-83.55Z"></path>
      </g>
      <g>
        <path class="cls-2" d="M1428.38,118.49c0,29.15-21.8,51.18-51.66,51.18h-43.84v63.27h-12.56V67.07h56.4c29.86,0,51.66,22.04,51.66,51.42ZM1415.82,118.49c0-22.98-16.35-39.57-39.1-39.57h-43.84v78.91h43.84c22.75,0,39.1-16.59,39.1-39.34Z"></path>
        <path class="cls-2" d="M1523.4,164.93h-52.37v68.01h-12.56V67.07h65.4c27.01,0,49.05,22.04,49.05,49.05,0,22.51-15.4,41.47-36.49,47.15l41.23,69.67h-14.45l-39.81-68.01ZM1471.03,153.08h52.84c20.14,0,36.49-16.59,36.49-36.97s-16.35-37.2-36.49-37.2h-52.84v74.17Z"></path>
        <path class="cls-2" d="M1593.3,150c0-47.39,37.68-85.54,85.54-85.54s85.54,38.15,85.54,85.54-37.68,85.54-85.54,85.54-85.54-38.15-85.54-85.54ZM1751.83,150c0-40.76-31.99-73.46-72.98-73.46s-72.98,32.7-72.98,73.46,31.99,73.46,72.98,73.46,72.98-32.7,72.98-73.46Z"></path>
        <path class="cls-2" d="M1775.29,207.82l10.66-6.4c5.92,14.93,20.14,22.04,38.86,22.04,24.17,0,40.52-12.32,40.52-36.02v-120.38h12.8v120.38c0,31.75-23.93,48.1-53.32,48.1-22.75,0-41.47-9.48-49.53-27.72Z"></path>
        <path class="cls-2" d="M2011.31,221.09v11.85h-95.5V67.07h94.31v11.85h-81.75v64.45h75.83v11.85h-75.83v65.88h82.94Z"></path>
        <path class="cls-2" d="M2030.51,150c0-47.39,35.78-85.54,86.25-85.54,30.57,0,57.35,15.64,71.09,39.81l-11.14,6.4c-10.9-20.38-33.89-34.12-59.95-34.12-43.6,0-73.7,32.7-73.7,73.46s30.09,73.46,73.7,73.46c26.3,0,49.53-13.98,60.43-34.83l11.14,6.4c-13.51,24.41-40.52,40.52-71.56,40.52-50.47,0-86.25-38.15-86.25-85.54Z"></path>
        <path class="cls-2" d="M2316.52,78.92h-52.13v154.03h-12.8V78.92h-52.13v-11.85h117.06v11.85Z"></path>
        <path class="cls-2" d="M2326.95,196.45l10.9-6.4c5.69,19.91,22.51,33.41,49.76,33.41s41.7-14.22,41.7-33.17c0-19.9-17.53-27.49-42.89-35.54-27.72-9-52.61-16.82-52.61-45.73,0-27.25,22.04-44.55,50.24-44.55s45.26,15.64,53.32,34.83l-10.66,5.92c-6.16-14.93-18.96-28.67-42.65-28.67s-37.44,13.51-37.44,31.99c0,19.9,16.82,26.07,40.52,33.89,29.38,9.71,54.98,18.96,54.98,47.63s-21.56,45.5-54.5,45.5c-31.04,0-53.08-15.64-60.66-39.1Z"></path>
      </g>
      <g>
        <path class="cls-1" d="M1052.22,3.11h47.47v289.35h-47.47V3.11Z"></path>
        <path class="cls-1" d="M931.28,171.52v-47.47h289.35v47.47h-289.35Z"></path>
        <path class="cls-1" d="M956.87,62.27l33.57-33.57,204.6,204.6-33.57,33.57-204.6-204.6Z"></path>
        <path class="cls-4" d="M1161.47,28.7l33.57,33.57-204.6,204.6-33.57-33.57,204.6-204.6Z"></path>
      </g>
    </g>
  </g>
</svg>
